<svg version="1.1" width="196" height="41" viewBox="0 0 196 41" xmlns="http://www.w3.org/2000/svg" xmlns:xlink="http://www.w3.org/1999/xlink"><defs xmlns="http://www.w3.org/2000/svg"><style xmlns="http://www.w3.org/1999/xhtml" type="text/css">@import url(https://fonts.googleapis.com/css?family=Josefin+Slab:regular,100,300,600,700,italic,100italic,300italic,600italic,700italic);</style></defs><g xmlns="http://www.w3.org/2000/svg" id="obj_1"><g id="obj_24" transform="matrix(1,0,0,1,0,0)" opacity="1" display="inline"><path fill-opacity="1" fill="#ffffff" stroke-opacity="1" stroke="#000000" stroke-width="1" stroke-linecap="square" stroke-linejoin="miter"/><defs/></g><g id="obj_25" transform="matrix(1,0,0,1,2.155,4.161)" opacity="1" display="inline"><path d="M 0 23.43 L 2.541 23.43 L 2.541 13.695 L 0 13.695 L 0 12.375 L 3.927 12.375 L 3.927 23.43 L 6.369 23.43 L 6.369 24.75 L 0 24.75 L 0 23.43 M 2.178 7.986 C 2.178 7.678 2.288 7.419 2.508 7.21 C 2.728 7.001 2.981 6.897 3.267 6.897 C 3.531 6.897 3.773 7.001 3.993 7.21 C 4.213 7.419 4.323 7.678 4.323 7.986 C 4.323 8.294 4.213 8.553 3.993 8.761 C 3.773 8.97 3.531 9.075 3.267 9.075 C 2.981 9.075 2.728 8.97 2.508 8.761 C 2.288 8.553 2.178 8.294 2.178 7.986 Z M 27.324 23.43 L 29.898 23.43 L 29.898 16.17 C 29.854 15.466 29.596 14.85 29.123 14.322 C 28.65 13.794 27.951 13.508 27.027 13.464 C 26.367 13.464 25.729 13.574 25.113 13.794 C 24.497 14.014 23.958 14.322 23.496 14.718 C 23.034 15.114 22.666 15.581 22.391 16.12 C 22.116 16.659 21.967 17.248 21.945 17.886 L 21.945 23.43 L 24.387 23.43 L 24.387 24.75 L 17.985 24.75 L 17.985 23.43 L 20.559 23.43 L 20.559 16.17 C 20.515 15.466 20.257 14.85 19.784 14.322 C 19.311 13.794 18.612 13.508 17.688 13.464 C 17.028 13.464 16.39 13.579 15.774 13.81 C 15.158 14.041 14.614 14.355 14.141 14.751 C 13.668 15.147 13.294 15.62 13.019 16.17 C 12.744 16.72 12.606 17.325 12.606 17.985 L 12.606 23.43 L 15.048 23.43 L 15.048 24.75 L 8.679 24.75 L 8.679 23.43 L 11.253 23.43 L 11.253 13.695 L 8.877 13.695 L 8.877 12.375 L 12.375 12.375 L 12.408 13.53 C 12.43 13.904 12.452 14.245 12.474 14.553 C 12.496 14.861 12.507 15.202 12.507 15.576 C 12.969 14.52 13.679 13.684 14.636 13.068 C 15.593 12.452 16.698 12.133 17.952 12.111 C 19.074 12.111 19.982 12.413 20.675 13.018 C 21.368 13.623 21.78 14.421 21.912 15.411 C 22.374 14.421 23.078 13.629 24.024 13.035 C 24.97 12.441 26.048 12.133 27.258 12.111 C 28.468 12.111 29.425 12.452 30.129 13.134 C 30.833 13.816 31.207 14.707 31.251 15.807 L 31.251 23.43 L 33.693 23.43 L 33.693 24.75 L 27.324 24.75 L 27.324 23.43 Z M 36.003 18.546 C 36.003 17.666 36.174 16.835 36.515 16.054 C 36.856 15.273 37.318 14.591 37.901 14.008 C 38.484 13.425 39.171 12.963 39.963 12.622 C 40.755 12.281 41.602 12.111 42.504 12.111 C 43.142 12.111 43.747 12.204 44.319 12.391 C 44.891 12.578 45.408 12.82 45.87 13.117 C 46.332 13.414 46.723 13.755 47.042 14.14 C 47.36 14.525 47.597 14.905 47.751 15.279 C 47.751 14.795 47.768 14.311 47.801 13.827 C 47.834 13.343 47.861 12.859 47.883 12.375 L 49.005 12.375 L 49.005 23.43 L 51.447 23.43 L 51.447 24.75 L 47.751 24.75 L 47.751 23.43 C 47.751 23.166 47.757 22.907 47.768 22.654 C 47.779 22.401 47.784 22.154 47.784 21.912 C 47.63 22.286 47.394 22.66 47.075 23.034 C 46.756 23.408 46.371 23.738 45.92 24.024 C 45.469 24.31 44.952 24.541 44.369 24.717 C 43.786 24.893 43.164 24.981 42.504 24.981 C 41.602 24.981 40.755 24.811 39.963 24.469 C 39.171 24.128 38.484 23.672 37.901 23.1 C 37.318 22.528 36.856 21.851 36.515 21.07 C 36.174 20.289 36.003 19.448 36.003 18.546 M 37.389 18.546 C 37.389 19.25 37.521 19.91 37.785 20.526 C 38.049 21.142 38.407 21.681 38.858 22.143 C 39.309 22.605 39.848 22.968 40.475 23.232 C 41.102 23.496 41.778 23.628 42.504 23.628 C 43.23 23.628 43.901 23.496 44.517 23.232 C 45.133 22.968 45.672 22.605 46.134 22.143 C 46.596 21.681 46.959 21.142 47.223 20.526 C 47.487 19.91 47.619 19.25 47.619 18.546 C 47.619 17.842 47.487 17.176 47.223 16.549 C 46.959 15.922 46.596 15.378 46.134 14.916 C 45.672 14.454 45.133 14.091 44.517 13.827 C 43.901 13.563 43.23 13.431 42.504 13.431 C 41.778 13.431 41.102 13.563 40.475 13.827 C 39.848 14.091 39.309 14.454 38.858 14.916 C 38.407 15.378 38.049 15.922 37.785 16.549 C 37.521 17.176 37.389 17.842 37.389 18.546 Z M 65.637 12.375 L 69.234 12.375 L 69.234 13.695 L 66.759 13.695 L 66.759 25.905 C 66.759 26.983 66.594 27.957 66.264 28.826 C 65.934 29.695 65.483 30.437 64.911 31.053 C 64.339 31.669 63.674 32.142 62.915 32.472 C 62.156 32.802 61.336 32.978 60.456 33 C 59.532 32.978 58.603 32.802 57.668 32.472 C 56.733 32.142 55.968 31.658 55.374 31.02 L 56.364 29.997 C 56.848 30.525 57.464 30.921 58.212 31.185 C 58.96 31.449 59.697 31.581 60.423 31.581 C 61.105 31.581 61.749 31.444 62.354 31.169 C 62.959 30.894 63.481 30.503 63.921 29.997 C 64.361 29.491 64.713 28.881 64.977 28.166 C 65.241 27.451 65.373 26.664 65.373 25.806 L 65.373 23.43 C 65.395 23.188 65.417 22.94 65.439 22.687 C 65.461 22.434 65.483 22.187 65.505 21.945 C 65.329 22.341 65.082 22.72 64.763 23.083 C 64.444 23.446 64.059 23.765 63.608 24.04 C 63.157 24.315 62.645 24.541 62.073 24.717 C 61.501 24.893 60.896 24.981 60.258 24.981 C 59.356 24.981 58.509 24.811 57.717 24.469 C 56.925 24.128 56.238 23.672 55.655 23.1 C 55.072 22.528 54.61 21.851 54.269 21.07 C 53.928 20.289 53.757 19.448 53.757 18.546 C 53.757 17.666 53.928 16.835 54.269 16.054 C 54.61 15.273 55.072 14.591 55.655 14.008 C 56.238 13.425 56.925 12.963 57.717 12.622 C 58.509 12.281 59.356 12.111 60.258 12.111 C 60.896 12.111 61.501 12.204 62.073 12.391 C 62.645 12.578 63.162 12.82 63.624 13.117 C 64.086 13.414 64.477 13.755 64.796 14.14 C 65.115 14.525 65.351 14.905 65.505 15.279 C 65.505 14.795 65.522 14.311 65.555 13.827 C 65.588 13.343 65.615 12.859 65.637 12.375 M 55.143 18.546 C 55.143 19.25 55.275 19.91 55.539 20.526 C 55.803 21.142 56.161 21.681 56.612 22.143 C 57.063 22.605 57.602 22.968 58.229 23.232 C 58.856 23.496 59.532 23.628 60.258 23.628 C 60.984 23.628 61.655 23.496 62.271 23.232 C 62.887 22.968 63.426 22.605 63.888 22.143 C 64.35 21.681 64.713 21.142 64.977 20.526 C 65.241 19.91 65.373 19.25 65.373 18.546 C 65.373 17.842 65.241 17.176 64.977 16.549 C 64.713 15.922 64.35 15.378 63.888 14.916 C 63.426 14.454 62.887 14.091 62.271 13.827 C 61.655 13.563 60.984 13.431 60.258 13.431 C 59.532 13.431 58.856 13.563 58.229 13.827 C 57.602 14.091 57.063 14.454 56.612 14.916 C 56.161 15.378 55.803 15.922 55.539 16.549 C 55.275 17.176 55.143 17.842 55.143 18.546 Z M 78.012 13.431 C 77.198 13.431 76.456 13.601 75.785 13.942 C 75.114 14.283 74.547 14.734 74.085 15.295 C 73.623 15.856 73.299 16.505 73.112 17.242 C 72.925 17.979 72.908 18.733 73.062 19.503 C 74.536 18.909 76.01 18.32 77.484 17.737 C 78.958 17.154 80.443 16.566 81.939 15.972 C 81.565 15.224 81.026 14.613 80.322 14.14 C 79.618 13.667 78.848 13.431 78.012 13.431 M 83.688 16.731 C 81.972 17.413 80.267 18.089 78.573 18.76 C 76.879 19.431 75.174 20.108 73.458 20.79 C 73.832 21.626 74.426 22.308 75.24 22.836 C 76.054 23.364 76.978 23.628 78.012 23.628 C 78.694 23.628 79.332 23.507 79.926 23.265 C 80.52 23.023 81.037 22.682 81.477 22.242 C 81.631 22.418 81.774 22.588 81.906 22.753 C 82.038 22.918 82.181 23.089 82.335 23.265 C 81.763 23.793 81.114 24.211 80.388 24.519 C 79.662 24.827 78.87 24.981 78.012 24.981 C 77.11 24.981 76.269 24.811 75.488 24.469 C 74.707 24.128 74.025 23.672 73.442 23.1 C 72.859 22.528 72.397 21.851 72.056 21.07 C 71.715 20.289 71.544 19.448 71.544 18.546 C 71.544 17.666 71.715 16.83 72.056 16.038 C 72.397 15.246 72.859 14.564 73.442 13.992 C 74.025 13.42 74.707 12.963 75.488 12.622 C 76.269 12.281 77.11 12.111 78.012 12.111 C 78.672 12.111 79.299 12.226 79.893 12.457 C 80.487 12.688 81.032 13.007 81.527 13.414 C 82.022 13.821 82.456 14.305 82.83 14.866 C 83.204 15.427 83.49 16.049 83.688 16.731 Z M 86.097 23.43 L 88.11 23.43 L 88.11 13.728 L 86.097 13.728 L 86.097 12.375 L 88.11 12.375 L 88.11 7.656 C 88.11 6.446 88.286 5.368 88.638 4.422 C 88.99 3.476 89.474 2.684 90.09 2.046 C 90.706 1.408 91.432 0.918 92.268 0.577 C 93.104 0.236 93.995 0.044 94.941 0 L 94.941 1.32 C 94.193 1.342 93.484 1.496 92.813 1.782 C 92.142 2.068 91.559 2.486 91.064 3.036 C 90.569 3.586 90.178 4.246 89.892 5.016 C 89.606 5.786 89.463 6.655 89.463 7.623 L 89.463 12.375 L 93.588 12.375 L 93.588 13.728 L 89.463 13.728 L 89.463 23.43 L 92.466 23.43 L 92.466 24.75 L 86.097 24.75 L 86.097 23.43 Z M 96.096 23.43 L 98.538 23.43 L 98.538 1.32 L 96.195 1.32 L 96.195 0 L 99.891 0 L 99.891 23.43 L 102.465 23.43 L 102.465 24.75 L 96.096 24.75 L 96.096 23.43 Z M 104.808 18.546 C 104.808 17.666 104.979 16.83 105.32 16.038 C 105.661 15.246 106.123 14.558 106.706 13.975 C 107.289 13.392 107.971 12.93 108.752 12.589 C 109.533 12.248 110.374 12.078 111.276 12.078 C 112.178 12.078 113.025 12.248 113.817 12.589 C 114.609 12.93 115.302 13.392 115.896 13.975 C 116.49 14.558 116.958 15.246 117.299 16.038 C 117.64 16.83 117.81 17.666 117.81 18.546 C 117.81 19.448 117.64 20.289 117.299 21.07 C 116.958 21.851 116.49 22.528 115.896 23.1 C 115.302 23.672 114.609 24.128 113.817 24.469 C 113.025 24.811 112.178 24.981 111.276 24.981 C 110.374 24.981 109.533 24.811 108.752 24.469 C 107.971 24.128 107.289 23.672 106.706 23.1 C 106.123 22.528 105.661 21.851 105.32 21.07 C 104.979 20.289 104.808 19.448 104.808 18.546 M 106.161 18.546 C 106.161 19.25 106.293 19.91 106.557 20.526 C 106.821 21.142 107.184 21.681 107.646 22.143 C 108.108 22.605 108.647 22.968 109.263 23.232 C 109.879 23.496 110.539 23.628 111.243 23.628 C 111.947 23.628 112.613 23.496 113.24 23.232 C 113.867 22.968 114.411 22.605 114.873 22.143 C 115.335 21.681 115.698 21.142 115.962 20.526 C 116.226 19.91 116.358 19.25 116.358 18.546 C 116.358 17.842 116.226 17.182 115.962 16.566 C 115.698 15.95 115.335 15.411 114.873 14.949 C 114.411 14.487 113.867 14.118 113.24 13.843 C 112.613 13.568 111.947 13.431 111.243 13.431 C 110.539 13.431 109.879 13.568 109.263 13.843 C 108.647 14.118 108.108 14.487 107.646 14.949 C 107.184 15.411 106.821 15.95 106.557 16.566 C 106.293 17.182 106.161 17.842 106.161 18.546 Z M 140.217 12.375 L 145.794 12.375 L 145.794 13.695 L 143.517 13.695 C 142.527 15.697 141.543 17.671 140.564 19.618 C 139.585 21.565 138.6 23.529 137.61 25.509 L 133.122 16.533 L 128.634 25.509 C 127.644 23.529 126.66 21.565 125.681 19.618 C 124.702 17.671 123.717 15.697 122.727 13.695 L 120.12 13.695 L 120.12 12.375 L 126.027 12.375 L 126.027 13.695 L 124.113 13.695 C 124.883 15.257 125.653 16.813 126.423 18.364 C 127.193 19.915 127.93 21.461 128.634 23.001 C 129.162 21.857 129.701 20.718 130.251 19.585 C 130.801 18.452 131.362 17.314 131.934 16.17 C 131.824 15.752 131.714 15.339 131.604 14.932 C 131.494 14.525 131.384 14.113 131.274 13.695 L 129.162 13.695 L 129.162 12.375 L 135.267 12.375 L 135.267 13.695 L 133.089 13.695 C 133.859 15.257 134.629 16.813 135.399 18.364 C 136.169 19.915 136.906 21.461 137.61 23.001 C 138.336 21.439 139.079 19.888 139.838 18.348 C 140.597 16.808 141.361 15.257 142.131 13.695 L 140.217 13.695 L 140.217 12.375 Z " fill-opacity="1" fill="#000000" stroke="none" stroke-width="1" stroke-linecap="square" stroke-linejoin="miter"/><defs/></g><g id="obj_26" transform="matrix(1,0,0,1,193.197,14.548)" opacity="1" display="inline"><path d="M 0 0 L 0.2169 0.7116 " fill-opacity="1" fill="#000000" stroke="none" stroke-width="1" stroke-linecap="square" stroke-linejoin="miter"/><defs/></g><g id="obj_27" transform="matrix(1,0,0,1,155.056,3.056)" opacity="1" display="inline"><path d="M 0 14.228 L 20.3362 12.5919 L 20.3362 12.5919 L 10.6283 0 L 10.6283 0 C 5.4216 2.6098 1.258 8.5413 0 14.228 Z " fill-opacity="1" fill="#000000" stroke="none" stroke-width="1" stroke-linecap="square" stroke-linejoin="miter"/><defs/></g><g id="obj_28" transform="matrix(1,0,0,1,154.842,16.947)" opacity="1" display="inline"><path d="M 4.8042 16.5848 C 0.9861 12.1867 -0.7218 6.0335 0.2832 0.2965 L 0.2832 0.2965 L 16.1801 0 L 16.1801 0 L 4.8042 16.5848 Z " fill-opacity="1" fill="#000000" stroke="none" stroke-width="1" stroke-linecap="square" stroke-linejoin="miter"/><defs/></g><g id="obj_29" transform="matrix(1,0,0,1,159.659,21.236)" opacity="1" display="inline"><path d="M 16.3743 19.0078 L 9.804 0 L 0 12.2831 L 0 12.2831 C 4.0148 16.5026 10.5676 19.4628 16.3743 19.0078 Z " fill-opacity="1" fill="#000000" stroke="none" stroke-width="1" stroke-linecap="square" stroke-linejoin="miter"/><defs/></g><g id="obj_30" transform="matrix(1,0,0,1,171.905,24.994)" opacity="1" display="inline"><path d="M 0 0 L 19.0755 6.371 C 15.8985 11.2523 9.9052 14.6303 4.1133 15.2431 L 0 0 Z " fill-opacity="1" fill="#000000" stroke="none" stroke-width="1" stroke-linecap="square" stroke-linejoin="miter"/><defs/></g><g id="obj_31" transform="matrix(1,0,0,1,165.737,1)" opacity="1" display="inline"><path d="M 0 2.0303 L 13.2044 17.1996 L 13.2044 17.1996 L 16.9079 1.7423 C 16.7757 1.6823 16.6495 1.6229 16.515 1.5652 L 16.515 1.5652 C 11.2921 -0.6759 5.0887 -0.5012 0 2.0303 " fill-opacity="1" fill="#000000" stroke="none" stroke-width="1" stroke-linecap="square" stroke-linejoin="miter"/><defs/></g><g id="obj_32" transform="matrix(1,0,0,1,179.232,2.656)" opacity="1" display="inline"><path d="M 0 19.7925 L 3.2354 0 C 3.5535 0.1376 3.6556 0.1855 3.7575 0.2341 C 6.1447 1.3787 8.2512 3.0128 10.002 5.004 C 11.9244 7.1902 13.3767 9.7899 14.1774 12.5973 L 0 19.7925 " fill-opacity="1" fill="#000000" stroke="none" stroke-width="1" stroke-linecap="square" stroke-linejoin="miter"/><defs/></g><g id="obj_33" transform="matrix(1,0,0,1,176.259,15.353)" opacity="1" display="inline"><path d="M 0 10.0383 L 17.1023 0 C 17.4901 1.1936 17.6001 1.6189 17.7545 2.8628 C 18.3174 7.3981 17.22 12.1146 14.7549 15.9575 L 0 10.0383 " fill-opacity="1" fill="#000000" stroke="none" stroke-width="1" stroke-linecap="square" stroke-linejoin="miter"/><defs/></g></g></svg>