<?xml version="1.0" encoding="utf-8"?>
<!-- Generator: Adobe Illustrator 16.2.1, SVG Export Plug-In . SVG Version: 6.00 Build 0)  -->
<!DOCTYPE svg PUBLIC "-//W3C//DTD SVG 1.1//EN" "http://www.w3.org/Graphics/SVG/1.1/DTD/svg11.dtd">
<svg version="1.1" id="Layer_1" xmlns="http://www.w3.org/2000/svg" xmlns:xlink="http://www.w3.org/1999/xlink" x="0px" y="0px"
	 width="290.752px" height="57.528px" viewBox="0 0 290.752 57.528" enable-background="new 0 0 290.752 57.528"
	 xml:space="preserve">
<g>
	<path fill-rule="evenodd" clip-rule="evenodd" fill="#535347" d="M145.785,16.768c0-0.183,0.062-0.336,0.173-0.438
		c0.103-0.112,0.255-0.173,0.439-0.173l25.025,0c0.184,0,0.336,0.062,0.438,0.174c0.113,0.102,0.174,0.255,0.174,0.438v3.854
		c0,0.184-0.061,0.337-0.174,0.438c-0.102,0.113-0.254,0.173-0.438,0.173l-19.824,0c-0.244,0-0.367,0.124-0.367,0.368v4.692h-5.446
		V16.768L145.785,16.768z M151.23,31.282v3.33c0,0.246,0.123,0.369,0.367,0.369l16.826-0.002c0.184,0,0.336,0.062,0.439,0.174
		c0.111,0.104,0.172,0.256,0.172,0.439v3.551c0,0.184-0.061,0.338-0.172,0.449c-0.102,0.102-0.258,0.164-0.439,0.164h-16.826
		c-0.242,0-0.367,0.121-0.367,0.367v12.193c0,0.244,0.123,0.367,0.367,0.367h19.824c0.184,0,0.336,0.062,0.438,0.174
		c0.113,0.102,0.174,0.256,0.174,0.439v3.854c0,0.184-0.061,0.338-0.174,0.449c-0.102,0.102-0.254,0.164-0.438,0.164h-25.025
		c-0.184,0-0.336-0.062-0.439-0.164c-0.111-0.113-0.173-0.266-0.173-0.449V31.282H151.23L151.23,31.282z"/>
	<path fill-rule="evenodd" clip-rule="evenodd" fill="#00ABBF" d="M29.222,56.767c-0.061,0.184-0.051,0.338,0.03,0.439
		c0.082,0.111,0.215,0.174,0.398,0.174h4.283c0.184,0,0.336-0.053,0.469-0.145c0.123-0.102,0.235-0.254,0.327-0.469l3.182-9.055
		h16.826l3.182,9.055c0.061,0.215,0.152,0.367,0.285,0.469c0.122,0.092,0.296,0.145,0.51,0.145h4.283
		c0.184,0,0.316-0.062,0.398-0.174c0.713-0.9-7.234-22.166-11.587-33.75l-2.767,7.916l3.921,11.322H39.685l6.608-18.907l2.824-8.021
		l-4.721,0.005c-0.213,0-0.367,0.062-0.479,0.164c-0.112,0.111-0.194,0.266-0.255,0.449L29.222,56.767L29.222,56.767z M0,9.731
		c0,0.183,0.062,0.337,0.174,0.438c0.102,0.112,0.255,0.173,0.438,0.173h4.222c0.184,0,0.336-0.061,0.439-0.173
		c0.112-0.103,0.172-0.255,0.172-0.438V0c0-0.184-0.061-0.337-0.172-0.448C5.171-0.551,5.017-0.612,4.834-0.612H0.612
		c-0.183,0-0.337,0.062-0.438,0.164C0.062-0.337,0-0.183,0,0V9.731L0,9.731z M0,56.784c0,0.184,0.062,0.336,0.174,0.438
		c0.102,0.113,0.255,0.174,0.438,0.174h4.222c0.184,0,0.336-0.061,0.439-0.174c0.112-0.102,0.172-0.254,0.172-0.438V16.4
		c0-0.184-0.061-0.336-0.172-0.449c-0.103-0.102-0.255-0.164-0.439-0.164l-4.222,0c-0.184,0-0.337,0.062-0.438,0.164
		C0.062,16.063,0,16.217,0,16.4V56.784L0,56.784z M24.523,39.675h0.122c2.69-7.77,5.375-15.542,8.101-23.299
		c0.061-0.215,0.153-0.368,0.286-0.469c0.122-0.092,0.295-0.143,0.51-0.143l2.375-0.001l0,0.003l0.05-0.003h2.375L27.398,47.079
		c-0.061,0.184-0.152,0.336-0.286,0.449c-0.122,0.102-0.295,0.162-0.509,0.162h-3.978c-0.214,0-0.367-0.061-0.479-0.162
		c-0.112-0.113-0.193-0.266-0.255-0.449l-5.922-16.551v26.24c0,0.182-0.061,0.336-0.173,0.438c-0.102,0.113-0.254,0.174-0.438,0.174
		h-3.854c-0.184,0-0.337-0.061-0.439-0.174c-0.112-0.102-0.173-0.254-0.173-0.438V16.385c0-0.184,0.062-0.337,0.173-0.449
		c0.102-0.103,0.255-0.164,0.439-0.164l1.652,0l0.05-0.01l0.051,0.003l-0.001-0.003h2.375c0.215,0,0.388,0.052,0.51,0.144
		c0.095,0.072,0.17,0.172,0.226,0.3c0.034,0.054,0.064,0.113,0.092,0.179l-0.002,0.077C19.174,24.189,21.82,31.942,24.523,39.675
		L24.523,39.675z"/>
	<path fill-rule="evenodd" clip-rule="evenodd" fill="#00ABBF" d="M69.388,57.521c0.982,0.154,2.018,0.234,3.099,0.234
		c2.315-0.01,4.416-0.389,6.292-1.152c1.876-0.766,3.488-1.877,4.813-3.346c1.336-1.459,2.346-3.252,3.03-5.354
		c0.204-0.684,0.387-1.498,0.54-2.447c0.153-0.949,0.275-2,0.367-3.141c0.092-1.143,0.133-2.336,0.133-3.59v-3.121
		c0-0.184-0.061-0.336-0.163-0.447c-0.112-0.104-0.265-0.164-0.449-0.164H73.771c-0.184,0-0.336,0.061-0.438,0.164
		c-0.113,0.111-0.173,0.264-0.173,0.447v3.549c0,0.184,0.061,0.336,0.173,0.439c0.102,0.111,0.254,0.172,0.438,0.172h8.077
		c0.245,0,0.367,0.123,0.367,0.367c0,1.551-0.081,2.855-0.234,3.918c-0.153,1.059-0.337,1.938-0.561,2.631
		c-0.438,1.305-1.081,2.406-1.948,3.293c-0.867,0.887-1.887,1.561-3.08,2.02c-1.183,0.459-2.488,0.684-3.906,0.684
		c-2.104-0.01-3.868-0.436-5.29-1.281L69.388,57.521L69.388,57.521z M62.649,38.675c-0.011-0.73-0.014-1.531-0.014-2.396
		c0-1.582,0.02-2.938,0.051-4.068c0.041-1.123,0.102-2.082,0.172-2.855c0.072-0.777,0.164-1.429,0.266-1.948
		c0.102-0.521,0.225-0.969,0.367-1.346c0.643-2,1.713-3.529,3.212-4.579c1.5-1.061,3.427-1.591,5.782-1.602
		c1.458,0,2.753,0.194,3.875,0.592c1.122,0.407,2.111,1.01,2.957,1.826c0.856,0.815,1.622,1.846,2.285,3.089
		c0.091,0.184,0.214,0.307,0.357,0.357c0.152,0.061,0.316,0.042,0.5-0.05l3.671-1.775c0.153-0.092,0.245-0.213,0.275-0.356
		c0.031-0.153,0-0.316-0.092-0.5c-0.693-1.55-1.652-2.937-2.885-4.181c-1.245-1.245-2.764-2.224-4.579-2.958
		c-1.815-0.735-3.937-1.102-6.364-1.122c-2.355,0-4.477,0.367-6.363,1.091c-1.886,0.734-3.498,1.815-4.834,3.264
		c-1.335,1.437-2.355,3.232-3.059,5.374c-0.102,0.319-0.193,0.656-0.28,1.004L62.649,38.675L62.649,38.675z"/>
	<path fill-rule="evenodd" clip-rule="evenodd" fill="#00ABBF" d="M102.639,21.274C108.383,21.274,98.893,21.274,102.639,21.274
		L102.639,21.274z M103.305,57.802h15.604c0.184,0,0.336-0.061,0.438-0.174c0.113-0.102,0.173-0.254,0.173-0.438v-3.855
		c0-0.184-0.061-0.336-0.173-0.438c-0.102-0.113-0.254-0.174-0.438-0.174H99.083c-0.091,0-0.165-0.018-0.222-0.053l-0.012-0.01
		c-0.033-0.02-0.06-0.047-0.08-0.082l-0.007-0.014v-0.002l-0.008-0.014l0,0l-0.006-0.016v-0.002l-0.008-0.016l0,0l-0.004-0.018
		v-0.002l-0.006-0.016v-0.002l-0.003-0.018V52.46l-0.004-0.018V52.44l-0.002-0.02l0,0l-0.002-0.02v-0.002l0-0.02v-0.002l-0.001-0.02
		v-0.002v-4.221v-0.469h-5.445v0.469v9.053v0.002l0.001,0.006v0.002v0.008l0,0v0.008v0.002v0.006v0.002l0.002,0.006v0.002v0.008
		v0.002v0.006v0.002v0.008l0,0l0.002,0.006v0.002v0.006v0.002l0.002,0.008l0,0v0.008v0.002l0.002,0.004v0.002v0.008l0,0l0.002,0.008
		v0.002v0.008l0,0l0.002,0.006l0,0l0.002,0.008v0.002l0.002,0.006l0,0l0.001,0.008v0.002l0.002,0.006l0,0l0.002,0.008l0,0
		l0.002,0.006v0.002l0,0.008l0,0l0.003,0.006v0.002l0.002,0.004v0.002l0.002,0.006l0,0l0.002,0.008l0,0l0.003,0.006v0.002
		l0.002,0.008l0,0l0.002,0.006l0,0l0.002,0.008v0.002l0.004,0.006l0,0l0.002,0.006l0,0l0.003,0.008l0,0l0.002,0.006l0,0l0.004,0.006
		l0,0l0.002,0.006v0.002l0.004,0.004v0.002l0.002,0.006l0.004,0.008l0.004,0.004l0.004,0.008l0.002,0.006l0.004,0.008l0.004,0.004
		l0.004,0.008l0.002,0.006c0.02,0.031,0.044,0.061,0.074,0.088c0.102,0.111,0.255,0.174,0.439,0.174h9.427L103.305,57.802
		L103.305,57.802z M98.716,42.677v-2.57c0-0.246,0.123-0.367,0.367-0.367h8.315l1.675-4.775h-9.99c-0.243,0-0.367-0.123-0.367-0.367
		V21.642c0-0.245,0.123-0.367,0.367-0.367h14.791l1.778-5.079H93.883c-0.184,0-0.337,0.062-0.439,0.163
		c-0.112,0.112-0.173,0.267-0.173,0.449v25.869H98.716L98.716,42.677z"/>
	<path fill-rule="evenodd" clip-rule="evenodd" fill="#535347" d="M140.322,56.458c-0.018-0.047-0.039-0.098-0.065-0.15
		l-8.578-16.957c1.683-0.541,3.131-1.338,4.355-2.398c1.223-1.049,2.172-2.334,2.835-3.844c0.359-0.812,0.624-1.68,0.792-2.607
		h0.017c0.1-0.549,0.167-1.119,0.199-1.707l0.021-0.002l-0.005-0.369c0.004-0.129,0.004-0.26,0.005-0.392l-0.02-0.001v0h-0.002
		c-0.117-2.218-0.662-4.575-1.63-6.184c-1.081-1.785-2.601-3.181-4.548-4.17c-1.948-0.979-4.222-1.489-6.833-1.5l-5.82,0
		l-1.685,4.808l-0.004,0.016l-0.088,0.254l7.475,0.001c1.622,0,2.999,0.275,4.151,0.826c1.142,0.551,2.029,1.336,2.631,2.366
		c0.518,0.872,0.827,2.342,0.908,3.657c-0.011,1.417-0.326,2.635-0.928,3.649c-0.601,1.029-1.488,1.814-2.63,2.365
		c-1.152,0.539-2.529,0.826-4.151,0.826l-12.253-0.002l-1.684,4.832l13.264-0.002l0.354,0.723l7.795,15.934l0.006,0.012l0.004,0.008
		l0.004,0.012l0.004,0.008l0.005,0.01l0.005,0.01l0.004,0.01l0.004,0.008l0.316,0.646c0.102,0.207,0.19,0.373,0.306,0.469
		c0.118,0.098,0.286,0.145,0.49,0.145h4.895c0.215,0,0.366-0.084,0.438-0.236c0.069-0.143,0.031-0.295-0.071-0.498L140.322,56.458
		L140.322,56.458z"/>
	<path fill-rule="evenodd" clip-rule="evenodd" fill="#535347" d="M252.709,21.274C258.453,21.274,248.963,21.274,252.709,21.274
		L252.709,21.274z M253.375,57.802h15.605c0.182,0,0.334-0.061,0.438-0.174c0.111-0.102,0.172-0.254,0.172-0.438v-3.855
		c0-0.184-0.061-0.336-0.172-0.438c-0.104-0.113-0.256-0.174-0.439-0.174h-19.824c-0.092,0-0.166-0.018-0.223-0.053l-0.012-0.01
		c-0.033-0.02-0.061-0.047-0.08-0.082l-0.008-0.014v-0.002l-0.008-0.014l0,0l-0.006-0.016v-0.002l-0.008-0.016l0,0l-0.004-0.018
		v-0.002l-0.006-0.016v-0.002l-0.004-0.018V52.46l-0.004-0.018V52.44l-0.002-0.02l0,0l-0.002-0.02v-0.002v-0.02v-0.002l-0.002-0.02
		v-0.002v-4.221v-0.469h-5.445v0.469v9.053v0.002l0.002,0.006v0.002v0.008l0,0v0.008v0.002v0.006v0.002l0.002,0.006v0.002v0.008
		v0.002v0.006v0.002v0.008l0,0l0.002,0.006v0.002v0.006v0.002l0.002,0.008l0,0v0.008v0.002l0.002,0.004v0.002v0.008l0,0l0.002,0.008
		v0.002v0.008l0,0l0.002,0.006l0,0l0.002,0.008v0.002l0.002,0.006l0,0l0.002,0.008v0.002l0.002,0.006l0,0l0.002,0.008l0,0
		l0.002,0.006v0.002v0.008l0,0l0.004,0.006v0.002l0.002,0.004v0.002l0.002,0.006l0,0l0.002,0.008l0,0l0.004,0.006v0.002l0.002,0.008
		l0,0l0.002,0.006l0,0l0.002,0.008v0.002l0.004,0.006l0,0l0.004,0.006l0,0l0.002,0.008l0,0l0.002,0.006l0,0l0.006,0.006l0,0
		l0.002,0.006v0.002l0.004,0.004v0.002l0.002,0.006l0.004,0.008l0.004,0.004l0.004,0.008l0.004,0.006l0.004,0.008l0.004,0.004
		l0.004,0.008l0.002,0.006c0.02,0.031,0.043,0.061,0.074,0.088c0.102,0.111,0.254,0.174,0.438,0.174h9.428L253.375,57.802
		L253.375,57.802z M248.787,42.677v-2.57c0-0.246,0.123-0.367,0.367-0.367h8.314l1.676-4.775h-9.99
		c-0.242,0-0.367-0.123-0.367-0.367V21.642c0-0.245,0.123-0.367,0.367-0.367h14.791l1.777-5.079h-21.77
		c-0.184,0-0.336,0.062-0.438,0.163c-0.113,0.112-0.174,0.267-0.174,0.449v25.869H248.787L248.787,42.677z"/>
	<path fill-rule="evenodd" clip-rule="evenodd" fill="#535347" d="M290.393,56.458c-0.018-0.047-0.039-0.098-0.064-0.15
		l-8.578-16.957c1.684-0.541,3.131-1.338,4.355-2.398c1.223-1.049,2.172-2.334,2.834-3.844c0.359-0.812,0.625-1.68,0.793-2.607
		h0.016c0.1-0.549,0.168-1.119,0.199-1.707l0.021-0.002l-0.004-0.369c0.004-0.129,0.004-0.26,0.004-0.392l-0.02-0.001v0h-0.002
		c-0.117-2.218-0.662-4.575-1.631-6.184c-1.08-1.785-2.602-3.181-4.549-4.17c-1.947-0.979-4.221-1.489-6.832-1.5l-5.82,0
		l-1.684,4.808l-0.004,0.016l-0.09,0.254l7.475,0.001c1.623,0,2.998,0.275,4.152,0.826c1.141,0.551,2.029,1.336,2.631,2.366
		c0.518,0.872,0.826,2.342,0.908,3.657c-0.012,1.417-0.326,2.635-0.928,3.649c-0.602,1.029-1.49,1.814-2.631,2.365
		c-1.152,0.539-2.529,0.826-4.152,0.826l-12.252-0.002l-1.684,4.832l13.264-0.002l0.354,0.723l7.795,15.934l0.008,0.012l0.004,0.008
		l0.004,0.012l0.004,0.008l0.006,0.01l0.004,0.01l0.006,0.01l0.004,0.008l0.314,0.646c0.104,0.207,0.191,0.373,0.307,0.469
		c0.117,0.098,0.285,0.145,0.49,0.145h4.895c0.215,0,0.365-0.084,0.438-0.236c0.07-0.143,0.031-0.295-0.07-0.498L290.393,56.458
		L290.393,56.458z"/>
	<path fill-rule="evenodd" clip-rule="evenodd" fill="#535347" d="M209.625,10.113c0,0.184,0.061,0.337,0.174,0.439
		c0.102,0.112,0.254,0.173,0.438,0.173l4.223-0.001c0.184,0,0.336-0.061,0.439-0.172c0.111-0.103,0.172-0.255,0.172-0.439V0.382
		c0-0.183-0.061-0.337-0.172-0.448c-0.104-0.102-0.258-0.163-0.439-0.163l-4.223,0c-0.182,0-0.336,0.062-0.438,0.164
		c-0.111,0.112-0.174,0.266-0.174,0.449V10.113L209.625,10.113z M209.625,57.167c0,0.184,0.061,0.336,0.174,0.439
		c0.102,0.111,0.254,0.172,0.438,0.172h4.223c0.184,0,0.336-0.061,0.439-0.172c0.111-0.104,0.172-0.256,0.172-0.439V16.784
		c0-0.184-0.061-0.337-0.172-0.449c-0.104-0.103-0.256-0.164-0.439-0.164h-4.223c-0.184,0-0.336,0.062-0.438,0.164
		c-0.111,0.111-0.174,0.265-0.174,0.449V57.167L209.625,57.167z"/>
	<path fill-rule="evenodd" clip-rule="evenodd" fill="#535347" d="M220.455,16.154c-0.184,0-0.336,0.062-0.447,0.174
		c-0.516,0.514-0.164,3.52-0.164,4.293c0,0.183,0.062,0.337,0.164,0.438c0.111,0.111,0.266,0.173,0.447,0.173h1.586v-5.079H220.455
		L220.455,16.154z M220.566,52.96c-0.031,0.102-0.051,0.215-0.051,0.336v3.854c0,0.184,0.061,0.338,0.174,0.439
		c0.102,0.111,0.254,0.174,0.438,0.174h3.145c4.293-12.27,8.605-24.535,12.902-36.805c0.029-0.103,0.051-0.215,0.051-0.336v-3.855
		c0-0.183-0.061-0.336-0.174-0.438c-0.102-0.112-0.254-0.173-0.438-0.173l-3.145,0C229.176,28.425,224.863,40.69,220.566,52.96
		L220.566,52.96z M222.041,21.233h4.268l1.777-5.079h-6.045V21.233L222.041,21.233z M237.283,57.763
		c0.184,0,0.338-0.062,0.449-0.174c0.102-0.102,0.164-0.254,0.164-0.439v-3.854c0-0.184-0.062-0.338-0.164-0.438
		c-0.111-0.111-0.268-0.174-0.449-0.174h-5.852l-1.779,5.078H237.283L237.283,57.763z"/>
	<path fill-rule="evenodd" clip-rule="evenodd" fill="#535347" d="M190.357,58.46c2.508-0.01,4.711-0.316,6.607-0.938
		c1.887-0.613,3.479-1.479,4.742-2.602c1.275-1.121,2.223-2.447,2.865-3.977c0.432-1.021,0.715-2.115,0.854-3.277h-5.535
		c-0.168,0.854-0.488,1.629-0.967,2.328c-0.725,1.072-1.775,1.898-3.141,2.488c-1.367,0.592-3.01,0.889-4.938,0.898
		c-1.59-0.01-3.109-0.225-4.537-0.633s-2.744-0.938-3.938-1.59c-1.201-0.643-2.242-1.336-3.15-2.061
		c-0.152-0.123-0.305-0.184-0.447-0.174c-0.154,0-0.285,0.082-0.408,0.234l-2.693,3.182c-0.121,0.152-0.172,0.316-0.152,0.48
		c0.021,0.162,0.092,0.314,0.215,0.438c1.039,0.949,2.314,1.814,3.844,2.602c1.531,0.785,3.213,1.406,5.059,1.875
		S188.389,58.45,190.357,58.46L190.357,58.46z M205.164,42.677c-0.461-1.885-1.359-3.455-2.703-4.705
		c-2.039-1.916-5.098-3.141-9.168-3.68l-2.02-0.307c-2.131-0.287-3.832-0.734-5.117-1.336s-2.225-1.346-2.795-2.244
		c-0.57-0.896-0.846-1.927-0.836-3.089c0-1.337,0.305-2.509,0.918-3.519c0.611-0.999,1.498-1.785,2.672-2.355
		c1.172-0.562,2.609-0.847,4.303-0.857c1.764,0,3.457,0.255,5.09,0.776c1.631,0.52,3.283,1.305,4.945,2.345
		c0.152,0.091,0.307,0.133,0.449,0.123c0.152-0.011,0.285-0.092,0.408-0.245l2.08-3.366c0.121-0.152,0.172-0.305,0.143-0.448
		c-0.021-0.153-0.113-0.286-0.266-0.408c-1.029-0.765-2.213-1.427-3.559-2.009c-1.336-0.571-2.785-1.03-4.324-1.346
		c-1.551-0.327-3.141-0.5-4.783-0.5c-2.764,0.01-5.17,0.521-7.189,1.51c-2.027,0.999-3.6,2.396-4.711,4.222
		c-1.102,1.814-1.662,3.967-1.682,6.445c0.01,3.273,1.039,5.875,3.09,7.791c2.059,1.928,5.107,3.162,9.146,3.713l2.08,0.305
		c2.203,0.285,3.947,0.736,5.221,1.357c1.047,0.506,1.846,1.119,2.393,1.828H205.164L205.164,42.677z"/>
</g>
</svg>
